<?xml version="1.0" standalone="no"?>
<!DOCTYPE svg PUBLIC "-//W3C//DTD SVG 20010904//EN"
 "http://www.w3.org/TR/2001/REC-SVG-20010904/DTD/svg10.dtd">
<svg version="1.0" xmlns="http://www.w3.org/2000/svg"
 width="70.000000pt" height="70.000000pt" viewBox="0 0 70.000000 70.000000"
 preserveAspectRatio="xMidYMid meet">
<metadata>
Created by potrace 1.11, written by Peter Selinger 2001-2013
</metadata>
<g transform="translate(0.000000,70.000000) scale(0.100000,-0.100000)"
fill="#000000" stroke="none">
<path d="M0 350 l0 -350 25 0 25 0 0 350 0 350 -25 0 -25 0 0 -350z"/>
<path d="M229 497 c0 -23 0 -79 0 -125 0 -121 -22 -160 -66 -116 -11 10 -25
13 -47 8 -42 -8 -50 -18 -37 -43 27 -49 115 -72 178 -46 51 22 60 52 61 213 0
101 -3 142 -11 143 -7 0 -27 2 -44 4 -32 3 -33 3 -34 -38z"/>
<path d="M409 530 c-1 -3 -2 -85 -3 -182 l-2 -177 123 0 c100 0 123 3 124 14
1 8 2 21 3 28 6 34 -11 42 -83 40 -39 -1 -71 2 -72 5 -1 4 -2 65 -4 137 -1 72
-3 133 -4 136 -1 7 -80 6 -82 -1z"/>
</g>
</svg>
